HIERARCHY
ROOT Hips
{
	OFFSET 0.000000 0.000000 0.000000
	CHANNELS 6 Xposition Yposition Zposition Xrotation Yrotation Zrotation
	JOINT LeftUpLeg_virtual
	{
		OFFSET 0.000000 0.000000 0.000000
		CHANNELS 3 Xrotation Yrotation Zrotation
		JOINT LeftUpLeg
		{
			OFFSET 15.427100 -6.655098 0.678600
			CHANNELS 3 Xrotation Yrotation Zrotation
			JOINT LeftLeg
			{
				OFFSET 4.081073 -39.591068 13.024000
				CHANNELS 3 Xrotation Yrotation Zrotation
				JOINT LeftFoot
				{
					OFFSET -4.081074 -37.707932 -15.979700
					CHANNELS 3 Xrotation Yrotation Zrotation
					JOINT LeftToeBase
					{
						OFFSET 5.346399 -15.068900 20.645000
						CHANNELS 3 Xrotation Yrotation Zrotation
						JOINT LeftToe_End
						{
							OFFSET 2.754700 0.931300 11.300900
							CHANNELS 3 Xrotation Yrotation Zrotation
							End Site
							{
								OFFSET 0 0 0
							}
						}
					}
				}
			}
		}
	}
	JOINT RightUpLeg_virtual
	{
		OFFSET 0.000000 0.000000 0.000000
		CHANNELS 3 Xrotation Yrotation Zrotation
		JOINT RightUpLeg
		{
			OFFSET -15.569500 -6.655098 0.678600
			CHANNELS 3 Xrotation Yrotation Zrotation
			JOINT RightLeg
			{
				OFFSET -4.081825 -39.591045 13.023800
				CHANNELS 3 Xrotation Yrotation Zrotation
				JOINT RightFoot
				{
					OFFSET 4.081824 -37.707954 -15.979600
					CHANNELS 3 Xrotation Yrotation Zrotation
					JOINT RightToeBase
					{
						OFFSET -5.346400 -15.068900 20.645000
						CHANNELS 3 Xrotation Yrotation Zrotation
						JOINT RightToe_End
						{
							OFFSET -2.754700 0.931300 11.300900
							CHANNELS 3 Xrotation Yrotation Zrotation
							End Site
							{
								OFFSET 0 0 0
							}
						}
					}
				}
			}
		}
	}
	JOINT Spine_virtual
	{
		OFFSET 0.000000 0.000000 0.000000
		CHANNELS 3 Xrotation Yrotation Zrotation
		JOINT Spine
		{
			OFFSET -0.279200 12.230698 -2.892100
			CHANNELS 3 Xrotation Yrotation Zrotation
			JOINT Spine1
			{
				OFFSET -0.232667 10.192268 -1.242267
				CHANNELS 3 Xrotation Yrotation Zrotation
				JOINT Spine1_split
				{
					OFFSET -0.232667 10.192268 -1.242267
					CHANNELS 3 Xrotation Yrotation Zrotation
					JOINT Spine2
					{
						OFFSET -0.232667 10.192268 -1.242267
						CHANNELS 3 Xrotation Yrotation Zrotation
						JOINT Neck_virtual
						{
							OFFSET 0.000000 0.000000 0.000000
							CHANNELS 3 Xrotation Yrotation Zrotation
							JOINT Neck
							{
								OFFSET -0.418800 17.814194 8.416900
								CHANNELS 3 Xrotation Yrotation Zrotation
								JOINT Head
								{
									OFFSET 0.000000 7.031097 3.806800
									CHANNELS 3 Xrotation Yrotation Zrotation
									JOINT HeadTop_End
									{
										OFFSET 0.000000 24.646606 12.978600
										CHANNELS 3 Xrotation Yrotation Zrotation
										End Site
										{
											OFFSET 0 0 0
										}
									}
								}
							}
						}
						JOINT LeftShoulder_virtual
						{
							OFFSET 0.000000 0.000000 0.000000
							CHANNELS 3 Xrotation Yrotation Zrotation
							JOINT LeftShoulder
							{
								OFFSET 8.476499 7.247704 -3.868750
								CHANNELS 3 Xrotation Yrotation Zrotation
								JOINT LeftShoulder_split
								{
									OFFSET 8.476499 7.247704 -3.868750
									CHANNELS 3 Xrotation Yrotation Zrotation
									JOINT LeftArm
									{
										OFFSET 9.308998 -2.777710 0.208600
										CHANNELS 3 Xrotation Yrotation Zrotation
										JOINT LeftForeArm
										{
											OFFSET 29.972298 0.000000 0.000000
											CHANNELS 3 Xrotation Yrotation Zrotation
											JOINT LeftHand
											{
												OFFSET 26.026505 0.000000 0.000000
												CHANNELS 3 Xrotation Yrotation Zrotation
												End Site
												{
													OFFSET 0 0 0
												}
											}
										}
									}
								}
							}
						}
						JOINT RightShoulder_virtual
						{
							OFFSET 0.000000 0.000000 0.000000
							CHANNELS 3 Xrotation Yrotation Zrotation
							JOINT RightShoulder
							{
								OFFSET -7.570500 7.247704 -3.868750
								CHANNELS 3 Xrotation Yrotation Zrotation
								JOINT RightShoulder_split
								{
									OFFSET -7.570500 7.247704 -3.868750
									CHANNELS 3 Xrotation Yrotation Zrotation
									JOINT RightArm
									{
										OFFSET -9.308998 -2.777710 0.208500
										CHANNELS 3 Xrotation Yrotation Zrotation
										JOINT RightForeArm
										{
											OFFSET -29.972300 0.000000 0.000000
											CHANNELS 3 Xrotation Yrotation Zrotation
											JOINT RightHand
											{
												OFFSET -26.026505 0.000000 0.000000
												CHANNELS 3 Xrotation Yrotation Zrotation
												End Site
												{
													OFFSET 0 0 0
												}
											}
										}
									}
								}
							}
						}
					}
				}
			}
		}
	}
}
MOTION
Frames: 10
Frame Time: 0.03333333
15.852847 47.637474 -53.634209 0.000000 0.000000 0.000000 43.840461 -26.307843 10.216753 -48.544163 -11.999712 -3.106622 105.905724 -2.243025 -2.086557 5.843657 -4.942921 -7.983327 14.955389 -23.981117 -41.281366 0.000000 0.000000 0.000000 44.865119 -25.058637 9.382739 -96.269467 -9.362889 -24.997797 95.184861 -10.057409 5.126088 -24.818312 -3.606883 6.763341 -8.730557 -0.467971 0.309912 0.000000 0.000000 0.000000 43.136282 -27.708776 10.676416 35.823919 8.187079 7.018479 5.138581 2.693930 0.757126 0.360370 -0.706143 2.128186 0.000000 0.000000 0.000000 7.211073 2.385073 1.309297 -9.727099 -3.756335 -0.372810 -20.905269 -15.925670 -7.343497 0.000000 0.000000 0.000000 6.490573 2.333920 0.921106 5.436376 -21.822202 -8.574638 3.036329 0.690916 -3.600089 -26.150689 -18.808528 -38.725270 1.527366 -36.505476 0.492940 0.000000 0.000000 0.000000 5.617090 1.999286 1.567702 -1.195393 28.480203 15.847808 -0.513964 4.078911 -1.662201 -50.929374 47.856059 17.059106 -1.111289 15.288170 -0.007329 0.000000 0.000000 0.000000 
16.304033 48.074352 -53.741943 0.000000 0.000000 0.000000 42.140078 -28.788318 10.750306 -52.673907 -10.822798 -2.405698 107.387041 -2.577476 -2.824842 7.294728 -4.567727 -9.525159 -0.503997 -19.832235 -38.343630 0.000000 0.000000 0.000000 43.569182 -26.537687 9.938105 -95.015246 -9.957250 -25.437747 94.389068 -10.310516 6.328867 -25.811715 -4.034463 7.036788 -9.115426 -0.371642 0.089949 0.000000 0.000000 0.000000 41.562500 -29.352417 11.163042 35.818632 8.721215 6.074478 5.390734 2.788718 0.623605 0.393969 -0.886571 2.243379 0.000000 0.000000 0.000000 7.422933 2.464296 1.081932 -8.419821 -2.863914 -1.150124 -20.589638 -14.501972 -7.933560 0.000000 0.000000 0.000000 6.736801 2.460958 0.612065 5.748820 -22.619401 -8.986608 2.192411 0.271581 -3.462588 -24.252926 -15.899670 -38.285533 1.678488 -38.323225 0.519984 0.000000 0.000000 0.000000 5.890026 2.156955 1.360928 -0.910124 28.154409 15.366274 -0.226406 3.839606 -1.822102 -48.733560 46.188290 17.006660 -1.053883 18.551726 -0.066039 0.000000 0.000000 0.000000 
16.510807 48.722469 -52.834396 0.000000 0.000000 0.000000 40.556676 -30.229386 10.994139 -55.704458 -9.109740 -1.889030 106.855550 -3.006665 -3.088240 8.358330 -5.300633 -11.803730 -27.186012 -14.490566 -30.467609 0.000000 0.000000 0.000000 42.725746 -28.578244 11.056755 -93.851731 -10.546216 -25.623911 93.643683 -10.597366 7.665143 -26.622332 -4.932489 7.162705 -9.965372 -0.171828 -0.217176 0.000000 0.000000 0.000000 40.552257 -30.628341 11.772557 35.568278 9.297339 4.857111 5.636673 2.926371 0.423954 0.669891 -1.390422 2.347151 0.000000 0.000000 0.000000 7.532698 2.620907 0.778721 -7.178743 -2.014504 -1.974448 -20.181418 -12.958967 -8.314949 0.000000 0.000000 0.000000 6.984945 2.614837 0.269679 6.068770 -23.338055 -9.129917 1.607911 -0.332090 -3.247344 -22.698766 -13.233121 -37.577396 1.632167 -39.794656 0.443539 0.000000 0.000000 0.000000 6.151703 2.384059 1.128772 -0.449003 27.696195 14.501434 0.079697 3.385401 -1.951294 -46.938890 44.827153 17.129780 -1.023403 22.229161 0.009507 0.000000 0.000000 0.000000 
16.434841 49.395985 -50.897614 0.000000 0.000000 0.000000 39.272119 -30.728984 11.178656 -57.616231 -6.835179 -1.570613 104.495481 -2.938314 -2.838384 8.450013 -6.136109 -13.145864 -62.686001 -12.294226 -18.759118 0.000000 0.000000 0.000000 42.461018 -30.718574 12.513295 -92.475447 -10.891454 -25.485481 92.785121 -10.498851 8.799738 -27.131081 -6.181341 7.397759 -11.171030 0.083714 -0.527377 0.000000 0.000000 0.000000 40.213534 -31.307791 12.542883 35.199277 9.736224 3.439502 5.861720 3.054886 0.195738 0.992197 -1.805878 2.469221 0.000000 0.000000 0.000000 7.554419 2.787457 0.467710 -6.186317 -1.340798 -2.745698 -19.760284 -11.473435 -8.517353 0.000000 0.000000 0.000000 7.190904 2.756664 -0.059291 6.385214 -23.992677 -8.943064 1.268012 -1.007817 -3.079226 -21.594497 -11.010740 -36.474262 1.394959 -41.009566 0.314957 0.000000 0.000000 0.000000 6.360501 2.618578 0.909080 0.124297 27.051073 13.356595 0.489612 2.802639 -2.032041 -45.820126 44.046941 17.486872 -1.090285 25.653403 0.229566 0.000000 0.000000 0.000000 
16.178104 50.083336 -48.124268 0.000000 0.000000 0.000000 38.454501 -30.453782 11.444659 -59.625885 -4.940077 -1.972181 101.549893 -2.019495 -1.885987 7.423698 -6.191812 -13.154086 -89.821755 -13.660973 -10.864440 0.000000 0.000000 0.000000 42.245700 -32.276711 13.794983 -90.493422 -10.907787 -25.281778 91.744071 -9.933619 9.503030 -27.599659 -7.747105 7.412813 -11.718970 0.350368 -0.720472 0.000000 0.000000 0.000000 40.253313 -31.227140 13.253810 34.905531 9.901213 1.900991 6.031901 3.135960 -0.005437 1.177012 -1.999541 2.253788 0.000000 0.000000 0.000000 7.520335 2.891213 0.208268 -5.671335 -0.948576 -3.374890 -19.451600 -10.134344 -8.573198 0.000000 0.000000 0.000000 7.327909 2.843544 -0.317808 6.691791 -24.666161 -8.393774 1.084361 -1.428228 -2.945282 -20.992740 -9.362484 -34.994512 1.113998 -42.133750 0.240413 0.000000 0.000000 0.000000 6.476016 2.775743 0.763134 0.707568 26.110109 11.907160 1.094928 2.234888 -2.018159 -45.584638 43.998692 18.254350 -1.263391 28.461204 0.529643 0.000000 0.000000 0.000000 
15.776057 51.041473 -44.621574 0.000000 0.000000 0.000000 37.517041 -30.091064 11.669975 -62.092874 -3.895755 -2.135454 99.287127 -0.509437 -0.949130 5.160858 -4.395251 -11.588070 -102.028703 -13.644385 -7.364637 0.000000 0.000000 0.000000 41.754842 -32.805945 14.534299 -87.609532 -10.544134 -25.207761 90.368819 -8.878262 9.713659 -28.433762 -9.561962 7.026582 -11.121940 0.587709 -0.729845 0.000000 0.000000 0.000000 40.082443 -30.629877 13.701387 34.799356 9.718709 0.389131 6.137635 3.125810 -0.138936 1.397487 -1.854692 2.014595 0.000000 0.000000 0.000000 7.477401 2.866311 0.053923 -5.754234 -0.790199 -3.795570 -19.334396 -9.023187 -8.558263 0.000000 0.000000 0.000000 7.411709 2.831479 -0.459818 6.954520 -25.347672 -7.604165 0.952166 -1.389549 -2.936190 -20.842659 -8.426456 -33.248804 0.964970 -43.292184 0.329931 0.000000 0.000000 0.000000 6.511627 2.799728 0.707793 1.219050 24.830992 10.247191 1.779816 1.826812 -1.980575 -46.502250 44.559717 19.698933 -1.515932 30.602908 0.838487 0.000000 0.000000 0.000000 
15.338538 52.305763 -41.024109 0.000000 0.000000 0.000000 36.578897 -29.775841 11.948205 -65.987127 -3.819183 -1.141322 98.354820 1.113471 -0.263280 2.080546 -1.072014 -10.016577 -101.618557 -10.894073 -5.944186 0.000000 0.000000 0.000000 40.671570 -32.486856 14.707045 -83.514676 -9.882462 -25.512937 88.518268 -7.326415 9.434688 -29.641723 -11.376086 6.605204 -9.888979 0.770921 -0.604706 0.000000 0.000000 0.000000 39.615787 -29.809944 13.872173 34.950047 9.190949 -0.945629 6.142200 3.010896 -0.207163 1.369424 -1.222560 1.703595 0.000000 0.000000 0.000000 7.449955 2.701064 0.005992 -6.393254 -0.787879 -3.986360 -19.430963 -8.081563 -8.516424 0.000000 0.000000 0.000000 7.448036 2.711531 -0.483311 7.109562 -26.035032 -6.798031 0.775331 -0.961508 -3.124842 -20.992107 -8.161151 -31.371530 1.085944 -44.462315 0.631970 0.000000 0.000000 0.000000 6.454235 2.661295 0.695153 1.603089 23.192443 8.368520 2.290214 1.601556 -1.856495 -48.580591 45.488503 21.979134 -1.711084 32.196552 1.028153 0.000000 0.000000 0.000000 
14.949100 53.924355 -37.599525 0.000000 0.000000 0.000000 35.570976 -29.352731 12.304275 -70.600694 -4.974726 0.861847 98.619688 2.531291 0.210879 -0.823394 2.891926 -9.296932 -91.502029 -6.297953 -6.010081 0.000000 0.000000 0.000000 39.020242 -31.484754 14.529619 -78.189560 -9.089223 -26.340408 86.213352 -5.290671 8.736567 -30.924904 -13.091451 6.674597 -8.659899 0.910385 -0.479971 0.000000 0.000000 0.000000 38.844956 -28.958103 13.910174 35.334952 8.385690 -1.978058 6.051942 2.809074 -0.252890 1.224173 -0.470673 1.388915 0.000000 0.000000 0.000000 7.436940 2.422771 0.018835 -7.412268 -0.871640 -3.944602 -19.712332 -7.211382 -8.487062 0.000000 0.000000 0.000000 7.480660 2.485840 -0.441767 7.133552 -26.720451 -6.072278 0.606397 -0.136123 -3.327146 -21.314823 -8.590933 -29.417799 1.493484 -45.439415 1.086006 0.000000 0.000000 0.000000 6.367272 2.389500 0.678525 1.858048 21.279470 6.259857 2.434484 1.635641 -1.813142 -51.606464 46.394080 25.050405 -1.781639 33.498219 1.056697 0.000000 0.000000 0.000000 
14.405725 55.728355 -34.620247 0.000000 0.000000 0.000000 34.385600 -28.786068 12.785797 -75.354117 -6.634613 4.158687 98.990239 3.147978 0.699672 -2.802318 6.040742 -10.245189 -75.442110 -1.622130 -7.174630 0.000000 0.000000 0.000000 37.161522 -30.336661 14.467640 -71.943646 -8.363877 -27.309944 83.337522 -2.864404 7.815758 -32.160250 -14.599767 7.465340 -7.960999 1.001014 -0.445043 0.000000 0.000000 0.000000 37.751647 -28.128645 13.920791 35.877587 7.340701 -2.659850 5.905000 2.546926 -0.348575 1.031289 0.104211 1.082829 0.000000 0.000000 0.000000 7.446522 2.090310 0.033990 -8.474576 -1.007937 -3.666632 -20.040576 -6.354744 -8.455003 0.000000 0.000000 0.000000 7.494657 2.187784 -0.404399 7.017946 -27.400822 -5.448302 0.507831 0.749068 -3.404028 -21.708978 -9.678948 -27.266744 2.038127 -45.926363 1.541217 0.000000 0.000000 0.000000 6.306829 2.045193 0.594103 2.037674 19.322865 3.984209 2.163514 1.961511 -1.680642 -55.001225 47.008009 28.370779 -1.677398 34.503384 0.915091 0.000000 0.000000 0.000000 
13.808830 57.615017 -32.014107 0.000000 0.000000 0.000000 33.191642 -27.853585 13.457294 -80.051347 -7.944302 8.292768 97.760511 2.870886 1.600660 -2.979508 6.759936 -13.153320 -59.468299 1.292467 -7.987262 0.000000 0.000000 0.000000 35.204089 -29.256128 14.683752 -65.095630 -7.741476 -28.136244 79.933362 -0.204744 6.821522 -33.545777 -15.747867 8.654970 -7.625651 1.036133 -0.473847 0.000000 0.000000 0.000000 36.769716 -27.138625 14.109511 36.498441 6.165069 -3.034761 5.727687 2.263158 -0.508006 0.842655 0.578087 0.672690 0.000000 0.000000 0.000000 7.443541 1.753593 0.015567 -9.320759 -1.253089 -3.194019 -20.253396 -5.518341 -8.339351 0.000000 0.000000 0.000000 7.508972 1.854763 -0.425825 6.807075 -28.029753 -4.913482 0.452395 1.600519 -3.280516 -22.181007 -11.403328 -24.794094 2.497225 -45.730292 1.813524 0.000000 0.000000 0.000000 6.322103 1.690803 0.425790 2.193360 17.536787 1.571919 1.622550 2.496731 -1.520092 -57.985178 47.311877 31.131869 -1.422128 35.134175 0.635283 0.000000 0.000000 0.000000 
